<svg width="133" height="76" viewBox="0 0 133 76" fill="none" xmlns="http://www.w3.org/2000/svg">
<path d="M124.628 75.9999H8.70548C4.90618 75.9999 1.79253 73.4955 0.969749 69.7672C0.138904 66.0389 1.89739 62.4484 5.3337 60.8193L65.219 32.5249C65.8644 32.2169 66.6145 32.2169 67.2679 32.5249L128.065 60.8599C131.493 62.5457 133.203 66.1443 132.356 69.8321C131.509 73.5198 128.404 75.9999 124.628 75.9999ZM66.2596 37.4122L7.39065 65.2284C5.73702 66.0065 5.4305 67.5383 5.68862 68.7136C5.94675 69.8888 6.87439 71.1369 8.70548 71.1369H124.628C126.443 71.1369 127.371 69.8969 127.637 68.7298C127.903 67.5708 127.613 66.0389 125.984 65.2446L66.2596 37.4122Z" fill="#623C21"/>
<path d="M66.6668 49C68.8759 49 70.6667 47.433 70.6667 45.5C70.6667 43.567 68.8759 42 66.6668 42C64.4576 42 62.6667 43.567 62.6667 45.5C62.6667 47.433 64.4576 49 66.6668 49Z" fill="#E0592A"/>
<path d="M66.2516 37.8905C64.9125 37.8905 63.8316 36.8044 63.8316 35.459V27.1352C63.8316 25.7898 64.9125 24.7037 66.2516 24.7037C69.0587 24.7037 71.7367 23.4961 73.6082 21.3969C75.5038 19.2653 76.3749 16.5096 76.0604 13.6405C75.5602 9.09357 71.9142 5.42203 67.3809 4.91952C64.5173 4.60343 61.7827 5.47876 59.6613 7.38343C57.572 9.26377 56.3701 11.9627 56.3701 14.7751C56.3701 16.1206 55.2892 17.2066 53.9502 17.2066C52.6112 17.2066 51.5303 16.1206 51.5303 14.7751C51.5303 10.5768 53.313 6.56482 56.4347 3.76051C59.5483 0.964299 63.7348 -0.373018 67.9132 0.0889641C74.6729 0.842725 80.1259 6.31357 80.868 13.1055C81.3278 17.312 79.9968 21.5104 77.2058 24.6389C74.9633 27.1595 71.9384 28.8129 68.6634 29.3641V35.459C68.6634 36.8044 67.5825 37.8905 66.2435 37.8905H66.2516Z" fill="#E0592A"/>
</svg>
