<svg width="94" height="100" viewBox="0 0 94 100" fill="none" xmlns="http://www.w3.org/2000/svg">
<g clip-path="url(#clip0_302_7226)">
<path d="M81.8228 77.9537C81.9758 77.7923 82.1365 77.6308 82.2896 77.4694C82.3508 77.4002 82.412 77.3387 82.4732 77.2695C82.6263 77.1081 82.7793 76.939 82.9247 76.7776C82.9859 76.7084 83.0471 76.6392 83.1007 76.5777C83.2538 76.4086 83.3992 76.2395 83.5445 76.0704C83.5981 76.0089 83.6517 75.9397 83.7053 75.8782C83.8583 75.7014 84.0037 75.5246 84.1567 75.3401C84.195 75.2863 84.2409 75.2402 84.2792 75.1864C84.9756 74.3254 85.6413 73.426 86.2688 72.5113C86.3071 72.4575 86.3453 72.4037 86.3836 72.3422C86.4984 72.1654 86.6132 71.9963 86.728 71.8195C86.7892 71.7272 86.8504 71.635 86.9116 71.5427C87.0188 71.3813 87.1182 71.2199 87.2177 71.0508C87.2866 70.9432 87.3555 70.8355 87.4243 70.7202C87.5238 70.5665 87.6156 70.4051 87.7075 70.2436C87.7763 70.1283 87.8452 70.0053 87.9141 69.89C88.0059 69.7363 88.0901 69.5749 88.1819 69.4211C88.2508 69.2981 88.3197 69.1751 88.3885 69.0445C88.4727 68.8907 88.5569 68.737 88.6411 68.5832C88.7099 68.4526 88.7788 68.3219 88.8477 68.1912C88.9242 68.0375 89.0084 67.8837 89.0849 67.73C89.1538 67.5916 89.2227 67.4609 89.2839 67.3226C89.3604 67.1688 89.4293 67.0151 89.5058 66.8614C89.5747 66.723 89.6359 66.5846 89.7048 66.4386C89.7736 66.2848 89.8425 66.1311 89.9114 65.985C89.9726 65.839 90.0415 65.6929 90.1027 65.5469C90.1639 65.3931 90.2328 65.2471 90.294 65.0934C90.3552 64.9396 90.4164 64.7859 90.4777 64.6321C90.5389 64.4861 90.6001 64.34 90.6537 64.194C90.7149 64.0326 90.7761 63.8634 90.8373 63.702C90.8909 63.5636 90.9445 63.4253 90.998 63.2869C91.0745 63.0871 91.1434 62.8872 91.2123 62.6796C91.2582 62.5413 91.3041 62.4106 91.35 62.2722C91.4419 61.9955 91.5337 61.7265 91.6179 61.4497C91.6561 61.3267 91.6944 61.2037 91.725 61.0807C91.7862 60.8886 91.8398 60.6964 91.8934 60.5042C91.9316 60.3659 91.9699 60.2352 92.0081 60.0968C92.0617 59.9123 92.1076 59.7355 92.1535 59.551C92.1918 59.4127 92.2224 59.2666 92.2607 59.1283C92.3066 58.9515 92.3525 58.7747 92.3908 58.5902C92.4214 58.4441 92.4596 58.2981 92.4902 58.152C92.5285 57.9752 92.5668 57.7984 92.605 57.6139C92.6356 57.4679 92.6663 57.3218 92.6969 57.1681C92.7351 56.9913 92.7657 56.8068 92.7963 56.63C92.827 56.4839 92.8499 56.3302 92.8729 56.1841C92.9035 55.9996 92.9341 55.8228 92.9647 55.6384C92.9877 55.4923 93.0106 55.3386 93.0336 55.1925C93.0642 55.008 93.0871 54.8235 93.1101 54.6391C93.133 54.493 93.1483 54.3393 93.1713 54.1932C93.1943 54.0087 93.2172 53.8165 93.2325 53.6244C93.2478 53.4783 93.2631 53.3323 93.2784 53.1862C93.2937 52.994 93.3167 52.8019 93.332 52.602C93.3473 52.4559 93.355 52.3176 93.3703 52.1715C93.3856 51.964 93.4009 51.7641 93.4085 51.5566C93.4162 51.4182 93.4238 51.2875 93.4315 51.1492C93.4391 50.9186 93.4468 50.6956 93.4545 50.465C93.4545 50.3497 93.4621 50.2344 93.4698 50.1268C93.4774 49.7809 93.4851 49.4426 93.4851 49.0967C93.4851 47.0366 93.332 44.9611 93.0336 42.9395C92.8423 41.6404 91.6408 40.7487 90.3476 40.9408C89.0543 41.133 88.1666 42.3399 88.3579 43.639C88.6258 45.43 88.7559 47.2672 88.7559 49.0967C88.7559 49.4042 88.7559 49.704 88.7406 50.0115C88.7406 50.1114 88.7406 50.2113 88.7329 50.3113C88.7329 50.5111 88.7176 50.7187 88.7099 50.9186C88.7099 51.0339 88.6946 51.1568 88.687 51.2722C88.6793 51.4566 88.664 51.6334 88.6487 51.8179C88.6411 51.9409 88.6258 52.0716 88.6181 52.1946C88.6028 52.3637 88.5875 52.5405 88.5722 52.7096C88.5569 52.8403 88.5416 52.971 88.5339 53.094C88.5186 53.2631 88.4957 53.4322 88.4804 53.5936C88.4651 53.7243 88.4498 53.855 88.4268 53.9857C88.4038 54.1471 88.3809 54.3162 88.3579 54.4776C88.335 54.6083 88.3197 54.739 88.2967 54.8697C88.2738 55.0311 88.2431 55.1925 88.2125 55.3539C88.1896 55.4846 88.1666 55.6153 88.1437 55.7383C88.1131 55.8997 88.0824 56.0611 88.0518 56.2226C88.0289 56.3532 87.9983 56.4762 87.9753 56.6069C87.9447 56.7683 87.9064 56.9298 87.8682 57.0989C87.8376 57.2219 87.8146 57.3449 87.784 57.4679C87.7457 57.637 87.6998 57.8061 87.6616 57.9675C87.631 58.0828 87.608 58.1981 87.5774 58.3134C87.5315 58.4902 87.4779 58.6747 87.432 58.8515C87.4014 58.9515 87.3784 59.0514 87.3478 59.159C87.2789 59.3973 87.2101 59.6356 87.1412 59.8662C87.1259 59.9046 87.1182 59.9508 87.1029 59.9892C87.0188 60.2659 86.9269 60.535 86.8351 60.804C86.8045 60.9039 86.7662 61.0039 86.728 61.1038C86.6667 61.2729 86.6055 61.4497 86.5443 61.6188C86.506 61.7341 86.4601 61.8494 86.4142 61.9648C86.353 62.1185 86.2994 62.2722 86.2382 62.426C86.1923 62.549 86.1387 62.6643 86.0928 62.7873C86.0316 62.9333 85.978 63.0794 85.9168 63.2254C85.8632 63.3484 85.8097 63.4714 85.7561 63.5944C85.6949 63.7328 85.6337 63.8788 85.5724 64.0172C85.5189 64.1402 85.4653 64.2632 85.4041 64.3862C85.3429 64.5245 85.274 64.6629 85.2128 64.7936C85.1516 64.9166 85.098 65.0395 85.0368 65.1625C84.9679 65.2932 84.9067 65.4316 84.8378 65.5623C84.7766 65.6853 84.7154 65.8082 84.6542 65.9312C84.5853 66.0619 84.5164 66.1926 84.4475 66.3233C84.3863 66.4463 84.3174 66.5693 84.2486 66.6922C84.1797 66.8229 84.1032 66.9459 84.0343 67.0766C83.9654 67.1996 83.8966 67.3149 83.8277 67.4379C83.7512 67.5686 83.6823 67.6916 83.6058 67.8145C83.5369 67.9299 83.468 68.0528 83.3915 68.1681C83.315 68.2911 83.2385 68.4141 83.1619 68.5371C83.0854 68.6524 83.0165 68.7754 82.94 68.8907C82.8558 69.0137 82.7793 69.1444 82.6951 69.2674C82.5574 69.4749 82.4196 69.6748 82.2819 69.8747C82.1901 70.0053 82.0982 70.1437 82.0064 70.2744C81.9222 70.3897 81.8381 70.5127 81.7539 70.628C81.6774 70.7356 81.5932 70.8509 81.5167 70.9585C81.4248 71.0815 81.333 71.1968 81.2488 71.3198C81.1723 71.4274 81.0881 71.5274 81.0116 71.635C80.9198 71.758 80.8203 71.8733 80.7285 71.9886C80.6443 72.0885 80.5678 72.1961 80.4836 72.2961C80.3841 72.4114 80.2923 72.5344 80.1928 72.6497C80.1086 72.7496 80.0244 72.8495 79.9403 72.9418C79.8408 73.0571 79.7413 73.1724 79.6418 73.2877C79.5576 73.3799 79.4735 73.4799 79.3893 73.5721C79.2821 73.6874 79.1827 73.8027 79.0755 73.918C78.9914 74.0103 78.9072 74.1025 78.823 74.1947C78.7159 74.3101 78.6087 74.4254 78.5016 74.5407C78.4174 74.6252 78.3332 74.7175 78.2491 74.802C78.1343 74.9173 78.0272 75.0326 77.9124 75.1402C77.8282 75.2248 77.744 75.3017 77.6598 75.3862C77.545 75.5015 77.4226 75.6168 77.3078 75.7321C77.2236 75.809 77.1471 75.8859 77.0629 75.9628C76.9405 76.0781 76.8104 76.1934 76.688 76.3087C76.6114 76.3778 76.5426 76.4393 76.466 76.5085C76.3283 76.6315 76.1982 76.7545 76.0605 76.8698C76.0146 76.9083 75.9686 76.9467 75.9304 76.9851C75.3947 77.4387 74.8514 77.8845 74.2928 78.3073C74.2468 78.3457 74.1933 78.3842 74.1474 78.4226C73.9943 78.5379 73.8413 78.6532 73.6882 78.7608C73.6193 78.8146 73.5428 78.8684 73.474 78.9222C73.3286 79.0299 73.1755 79.1298 73.0301 79.2374C72.9459 79.2912 72.8694 79.3527 72.7852 79.4065C72.6398 79.5065 72.4868 79.6064 72.3414 79.7063C72.2572 79.7601 72.173 79.8216 72.0889 79.8754C71.9435 79.9754 71.7904 80.0676 71.6374 80.1675C71.5532 80.2213 71.4614 80.2752 71.3772 80.329C71.2241 80.4212 71.0711 80.5135 70.918 80.6057C70.8339 80.6595 70.742 80.7133 70.6579 80.7594C70.5048 80.8517 70.3518 80.9439 70.1911 81.0285C70.1069 81.0746 70.0151 81.1284 69.9309 81.1745C69.7702 81.2668 69.6095 81.3513 69.4488 81.4359C69.3646 81.482 69.2804 81.5281 69.1962 81.5666C69.0279 81.6511 68.8595 81.7434 68.6988 81.8279C68.6223 81.8664 68.5458 81.9048 68.4769 81.9432C68.3009 82.0355 68.1172 82.12 67.9412 82.2046C67.8877 82.2353 67.8265 82.2584 67.7729 82.2815C66.8393 82.7273 65.8751 83.1347 64.9032 83.496H64.8879C64.6813 83.5806 64.467 83.6574 64.2528 83.7266C64.1915 83.7497 64.138 83.765 64.0768 83.7881C63.8855 83.8573 63.6865 83.9188 63.4875 83.9803C63.411 84.0033 63.3345 84.0341 63.258 84.0571C63.0666 84.1186 62.883 84.1725 62.6917 84.234C62.6075 84.257 62.5233 84.2878 62.4391 84.3108C62.2555 84.3646 62.0642 84.4184 61.8805 84.4722C61.7887 84.4953 61.7045 84.5184 61.6127 84.5491C61.429 84.5952 61.2377 84.649 61.0541 84.6952C60.9622 84.7182 60.8704 84.7413 60.7786 84.7644C60.5949 84.8105 60.4036 84.8566 60.2123 84.895C60.1205 84.9181 60.0286 84.9335 59.9368 84.9565C59.7455 84.995 59.5542 85.0411 59.3629 85.0795C59.2787 85.0949 59.1869 85.1103 59.095 85.1333C58.8961 85.1718 58.6971 85.2102 58.5058 85.2409C58.4293 85.2563 58.3451 85.264 58.2686 85.2794C58.062 85.3178 57.8553 85.3486 57.6411 85.3793C57.5798 85.387 57.5186 85.3947 57.4574 85.4024C57.2278 85.4331 56.9983 85.4716 56.7687 85.4946L61.8423 78.6301C62.6075 77.5924 62.3932 76.1242 61.3602 75.3478C60.3271 74.5791 58.8655 74.7943 58.0926 75.8321L49.4377 87.5547C49.4377 87.5547 49.43 87.5701 49.4224 87.5778C49.3611 87.6547 49.3152 87.7469 49.2693 87.8315C49.2464 87.8776 49.2081 87.9237 49.1851 87.9775C49.1469 88.0544 49.1239 88.1389 49.101 88.2235C49.078 88.285 49.055 88.3465 49.0397 88.408C49.0244 88.4772 49.0244 88.5463 49.0091 88.6155C48.9938 88.7001 48.9785 88.777 48.9785 88.8615C48.9785 88.9153 48.9785 88.9691 48.9862 89.0229C48.9862 89.1229 48.9862 89.2228 49.0091 89.3227C49.0091 89.3227 49.0091 89.3381 49.0091 89.3458C49.0168 89.3996 49.0397 89.4457 49.055 89.4995C49.078 89.5918 49.0933 89.684 49.1316 89.7686C49.1545 89.8378 49.1928 89.9069 49.2234 89.9761C49.254 90.0453 49.2846 90.1145 49.3305 90.1837C49.3764 90.2529 49.4224 90.3144 49.4759 90.3835C49.5218 90.4374 49.5601 90.4988 49.606 90.5527C49.6749 90.6218 49.7438 90.6833 49.8203 90.7525C49.8585 90.7833 49.8892 90.8217 49.9274 90.8524L61.5974 99.5464C62.133 99.9462 62.7912 100.085 63.3957 99.9692C63.962 99.8693 64.49 99.5541 64.8573 99.0545C65.6226 98.0167 65.4083 96.5485 64.3752 95.7721L57.1131 90.3605L57.0977 90.2452C57.4115 90.2067 57.7252 90.1683 58.039 90.1222H58.062C58.3681 90.0761 58.6818 90.0299 58.9879 89.9761H59.0185C59.3246 89.9223 59.6384 89.8685 59.9445 89.807H59.9521C63.3804 89.1536 66.6633 88.0698 69.7396 86.6169L69.7702 86.6015C70.038 86.4786 70.2982 86.3479 70.5584 86.2172L70.6196 86.1864C70.8721 86.0558 71.1323 85.9251 71.3848 85.7944L71.4614 85.756C71.7139 85.6253 71.9664 85.4869 72.2113 85.3486L72.2802 85.3101C72.5327 85.1718 72.7852 85.0257 73.0301 84.8797L73.0684 84.8566C75.1651 83.619 77.1395 82.2046 78.9761 80.6288C78.999 80.6057 79.0296 80.5826 79.0526 80.5673C79.2515 80.3981 79.4429 80.229 79.6342 80.0522C79.6801 80.0138 79.726 79.9754 79.7643 79.9369C79.9479 79.7755 80.1239 79.6064 80.2999 79.445C80.3535 79.3911 80.4071 79.345 80.4606 79.2912C80.629 79.1298 80.7973 78.9684 80.9657 78.8069C81.0269 78.7454 81.0881 78.6916 81.1417 78.6301C81.3024 78.4687 81.4631 78.3073 81.6238 78.1459C81.685 78.0844 81.7462 78.0152 81.8074 77.9537H81.8228Z" fill="#E0592A"/>
<path d="M34.9668 16.7653C40.2393 13.9134 46.2159 12.4068 52.246 12.4068C52.6209 12.4068 52.9959 12.4068 53.3709 12.4221C53.4933 12.4221 53.6157 12.4298 53.7305 12.4375C53.9831 12.4452 54.2432 12.4606 54.4958 12.4759C54.6335 12.4836 54.7789 12.4913 54.9167 12.5067C55.1615 12.5221 55.4064 12.5451 55.6436 12.5682C55.7814 12.5836 55.9115 12.5912 56.0492 12.6066C56.3936 12.6451 56.7456 12.6835 57.09 12.7296C57.243 12.7527 57.4037 12.7757 57.5568 12.7988C57.7634 12.8295 57.9623 12.8603 58.1689 12.891C58.3603 12.9218 58.5516 12.9602 58.7505 12.991C58.9112 13.0217 59.0643 13.0525 59.225 13.0832C59.4393 13.1216 59.6459 13.1678 59.8525 13.2139C59.9749 13.237 60.0897 13.2677 60.2121 13.2908C61.031 13.4753 61.8421 13.6828 62.6456 13.9211C62.6915 13.9365 62.7451 13.9518 62.791 13.9672C63.0665 14.0518 63.3343 14.1363 63.6098 14.2286C63.6557 14.2439 63.7017 14.2593 63.7476 14.2747C64.9414 14.6744 66.1198 15.128 67.2677 15.6507L67.2447 15.6891L58.8118 17.9645C57.5644 18.3027 56.8298 19.5864 57.1588 20.8394C57.4955 22.0924 58.7735 22.8303 60.0208 22.4998L74.0554 18.7101C74.0554 18.7101 74.0707 18.7101 74.0784 18.7024C74.1702 18.6793 74.262 18.6332 74.3538 18.5948C74.4074 18.5717 74.461 18.5563 74.5069 18.5333C74.5834 18.4949 74.6523 18.441 74.7288 18.3949C74.7824 18.3565 74.8359 18.3334 74.8895 18.2873C74.9431 18.2489 74.989 18.1951 75.0426 18.1413C75.1038 18.0874 75.165 18.0336 75.2186 17.9721C75.2568 17.9337 75.2798 17.8799 75.3104 17.8415C75.3716 17.7646 75.4328 17.68 75.4788 17.5955C75.4788 17.5955 75.4864 17.5878 75.4941 17.5801C75.517 17.534 75.5323 17.4802 75.5553 17.434C75.5935 17.3495 75.6318 17.2649 75.6624 17.1804C75.6854 17.1112 75.7007 17.0343 75.716 16.9651C75.7313 16.8883 75.7542 16.8191 75.7619 16.7422C75.7695 16.6577 75.7695 16.5808 75.7695 16.4962C75.7695 16.4271 75.7695 16.3579 75.7695 16.2887C75.7695 16.1888 75.7389 16.0965 75.7236 16.0043C75.716 15.9581 75.716 15.9043 75.7007 15.8582L71.928 1.76029C71.752 1.10689 71.3235 0.59955 70.7802 0.299758C70.2751 0.0230263 69.6706 -0.0615306 69.066 0.0998961C67.8187 0.438123 67.084 1.72185 67.4131 2.97483L69.7088 11.5766C69.6629 11.5535 69.617 11.5381 69.5787 11.5151C69.242 11.3536 68.8977 11.1999 68.5533 11.0539C68.4156 10.9924 68.2778 10.9385 68.1401 10.877C67.8799 10.7694 67.6274 10.6618 67.3672 10.5619C67.2141 10.5004 67.0687 10.4466 66.9157 10.3851C66.6555 10.2852 66.403 10.1929 66.1428 10.1007C65.9974 10.0469 65.852 9.99305 65.7142 9.94692C65.4005 9.83931 65.0867 9.73169 64.773 9.63176C64.6812 9.60101 64.597 9.57026 64.5052 9.5472C64.1072 9.42421 63.7017 9.30122 63.3037 9.1936C63.1813 9.15517 63.0512 9.12442 62.9288 9.09367C62.6456 9.0168 62.3548 8.93993 62.064 8.87075C61.911 8.83231 61.7579 8.80156 61.6049 8.76313C61.3371 8.70163 61.0616 8.64014 60.7937 8.57864C60.6407 8.54789 60.4953 8.51715 60.3422 8.4864C60.0438 8.4249 59.7453 8.37109 59.4392 8.31728C59.3168 8.29422 59.202 8.27116 59.0872 8.25579C58.674 8.18661 58.2531 8.12511 57.8322 8.06361C57.7404 8.04824 57.6562 8.04055 57.5644 8.03287C57.2277 7.98674 56.8986 7.94831 56.5619 7.91756C56.4165 7.90219 56.2711 7.88681 56.1258 7.87913C55.8426 7.84838 55.5595 7.82532 55.2687 7.80994C55.1156 7.80226 54.9626 7.78688 54.8095 7.77919C54.5187 7.76382 54.2203 7.74845 53.9295 7.73307C53.7918 7.73307 53.6617 7.7177 53.5239 7.7177C53.0954 7.70232 52.6669 7.69464 52.2383 7.69464C45.4277 7.69464 38.6782 9.40115 32.717 12.622C31.5691 13.2446 31.1406 14.6821 31.7528 15.8352C32.3726 16.9882 33.8036 17.4187 34.9515 16.8037L34.9668 16.7653Z" fill="#E0592A"/>
<path d="M37.8213 82.8119C24.3989 77.0082 15.7211 63.7712 15.7211 49.0968C15.7211 48.7124 15.7211 48.3281 15.7364 47.9437C15.7364 47.9053 15.7364 47.8669 15.7364 47.8361C15.7517 47.4902 15.767 47.1366 15.7823 46.7907V46.7676C15.8282 46.0066 15.9047 45.2533 15.9966 44.5L16.0884 44.5153L21.2461 51.5951C22.0037 52.6405 23.4653 52.8711 24.5061 52.1024C25.5468 51.3414 25.7764 49.8732 25.0111 48.8277L16.4327 37.0436C16.4327 37.0436 16.4174 37.0282 16.4174 37.0205C16.3562 36.9437 16.2873 36.8668 16.2185 36.7976C16.1802 36.7592 16.1496 36.7131 16.1037 36.6746C16.0425 36.6131 15.9659 36.567 15.8971 36.5209C15.8435 36.4824 15.7976 36.444 15.744 36.4056C15.6828 36.3671 15.6216 36.3441 15.5604 36.3133C15.4838 36.2749 15.415 36.2365 15.3384 36.2057C15.2849 36.1903 15.2313 36.1827 15.1777 36.1673C15.0859 36.1442 14.9864 36.1135 14.8869 36.0981C14.8869 36.0981 14.8716 36.0981 14.864 36.0981C14.8104 36.0981 14.7569 36.0981 14.7033 36.0981C14.6115 36.0981 14.5196 36.0827 14.4278 36.0904C14.3513 36.0904 14.2824 36.1058 14.2059 36.1212C14.1294 36.1288 14.0528 36.1365 13.9763 36.1596C13.8998 36.1827 13.8233 36.2134 13.7467 36.2365C13.6779 36.2595 13.6166 36.2826 13.5478 36.3133C13.4636 36.3518 13.3794 36.4056 13.2952 36.4594C13.2493 36.4901 13.2111 36.5055 13.1652 36.5363L1.45693 45.1534C0.913609 45.5531 0.592207 46.1373 0.515683 46.7523C0.446811 47.3211 0.584555 47.9284 0.944219 48.428C1.70181 49.4735 3.16342 49.7041 4.20415 48.9354L11.3439 43.6928C11.2291 44.5692 11.1449 45.4532 11.0837 46.3372V46.391C11.0531 46.7907 11.0378 47.1904 11.0225 47.5978C11.0225 47.6516 11.0225 47.7054 11.0225 47.7516C11.0072 48.1974 10.9995 48.6433 10.9995 49.0968C10.9995 65.6699 20.7946 80.6211 35.9541 87.1704C36.2602 87.3011 36.5739 87.3626 36.8877 87.3626C37.806 87.3626 38.6707 86.8245 39.061 85.9251C39.5737 84.7183 39.0227 83.3269 37.8213 82.8042V82.8119Z" fill="#E0592A"/>
<path d="M67.6197 74.041C66.4488 74.041 65.4923 73.0955 65.4693 71.9194L65.1785 55.7614C65.1709 55.3386 65.2857 54.9158 65.5152 54.5545L86.3299 21.8925L83.376 19.8478L64.1684 41.9325C63.6098 42.5782 62.7145 42.8318 61.9033 42.5705C61.0921 42.3168 60.5029 41.5942 60.4111 40.741L59.8295 35.3908C58.8194 34.7451 56.5236 33.6075 52.9117 33.6228C52.8734 33.6228 52.8275 33.6228 52.7892 33.6228C49.2385 33.6228 46.9657 34.7451 45.9633 35.3908L45.3817 40.7333C45.2899 41.5866 44.7006 42.3014 43.8895 42.5628C43.0783 42.8165 42.183 42.5628 41.6244 41.9248L22.4091 19.8401L19.5394 21.8233L40.2699 54.5545C40.4994 54.9158 40.6142 55.3309 40.6066 55.7537L40.3158 71.9117C40.2928 73.1032 39.3286 74.0718 38.1272 74.0333C36.9411 74.0103 35.9922 73.0263 36.0151 71.8348L36.2906 56.3225L14.7949 22.3845C14.1751 21.4005 14.4353 20.1014 15.3918 19.4403L21.552 15.1818C22.4474 14.5591 23.6717 14.7128 24.3911 15.543L41.6397 35.3678L41.7927 33.9764C41.8463 33.4537 42.0911 32.9694 42.4738 32.6158C42.6192 32.4775 46.1622 29.2874 52.7663 29.2874H53.0571C59.6305 29.2874 63.1659 32.4775 63.319 32.6158C63.7016 32.9694 63.9465 33.4537 64.0077 33.9764L64.1608 35.3678L81.4093 15.543C82.1287 14.7128 83.3531 14.5668 84.2484 15.1818L90.4928 19.5018C91.4493 20.1629 91.7095 21.462 91.082 22.446L69.4945 56.3225L69.77 71.8272C69.7929 73.0186 68.844 74.0026 67.6579 74.0256H67.6197V74.041Z" fill="#623C21"/>
<path d="M53.057 64.3477C52.2611 64.3477 51.626 63.702 51.626 62.9103V38.4195C51.626 37.6201 52.2688 36.9821 53.057 36.9821C53.8452 36.9821 54.488 37.6278 54.488 38.4195V62.9103C54.488 63.7097 53.8452 64.3477 53.057 64.3477Z" fill="#623C21"/>
<path d="M53.0571 46.8521C49.2462 46.8521 45.6113 45.5838 43.0707 43.3699C42.4738 42.8472 42.4049 41.9401 42.9253 41.3406C43.4457 40.741 44.3487 40.6795 44.9456 41.1945C46.9735 42.9625 49.9196 43.9695 53.0495 43.9695C56.1793 43.9695 59.1255 42.9548 61.1534 41.1945C61.7503 40.6718 62.6609 40.7333 63.1737 41.3406C63.694 41.9401 63.6328 42.8549 63.0283 43.3699C60.4876 45.5838 56.8527 46.8521 53.0418 46.8521H53.0571Z" fill="#623C21"/>
<path d="M53.0571 39.857C49.2462 39.857 45.6113 38.5886 43.0707 36.3748C42.4738 35.8521 42.4049 34.945 42.9253 34.3454C43.4457 33.7458 44.3487 33.6767 44.9456 34.1994C46.9735 35.9674 49.9196 36.9744 53.0495 36.9744C56.1793 36.9744 59.1255 35.9597 61.1534 34.1994C61.7503 33.6767 62.6609 33.7382 63.1737 34.3454C63.694 34.945 63.6328 35.8598 63.0283 36.3748C60.4876 38.5886 56.8527 39.857 53.0418 39.857H53.0571Z" fill="#623C21"/>
</g>
<defs>
<clipPath id="clip0_302_7226">
<rect width="93" height="100" fill="white" transform="translate(0.500244)"/>
</clipPath>
</defs>
</svg>
